<svg id="Layer_1" data-name="Layer 1" xmlns="http://www.w3.org/2000/svg" viewBox="0 0 613.25 613.45"><defs><style>.cls-1,.cls-2{fill:#fbb03b;}.cls-2{stroke:#fbb03b;stroke-miterlimit:10;stroke-width:24px;}</style></defs><path class="cls-1" d="M306.63,98.83a208,208,0,1,1-147.08,60.92A206.67,206.67,0,0,1,306.63,98.83m0-48a255.19,255.19,0,0,0-181,75c-100,100-100,262.06,0,362a256,256,0,0,0,362,0c100-100,100-262.07,0-362a255.2,255.2,0,0,0-181-75Z"/><path class="cls-2" d="M41.67,572.41l91.05-38.64L153,554.08,29,599.55,13.91,584.42,59.49,460.54l20.3,20.3Z"/><path class="cls-2" d="M571.48,41.35,476.19,83,456.51,63.31,584.12,14l15.12,15.12L550,156.85,530.16,137Z"/></svg>